<?xml version="1.0" standalone="no"?>
<!DOCTYPE svg PUBLIC "-//W3C//DTD SVG 20010904//EN"
 "http://www.w3.org/TR/2001/REC-SVG-20010904/DTD/svg10.dtd">
<svg version="1.0" xmlns="http://www.w3.org/2000/svg"
 width="600.000000pt" height="600.000000pt" viewBox="0 0 600.000000 600.000000"
 preserveAspectRatio="xMidYMid meet">
<metadata>
Created by potrace 1.14, written by Peter Selinger 2001-2017
</metadata>
<g transform="translate(0.000000,600.000000) scale(0.100000,-0.100000)"
fill="#000000" stroke="none">
<path d="M825 5989 c4 -5 99 -136 211 -291 112 -154 204 -284 204 -289 0 -5
18 -55 41 -112 60 -153 189 -360 189 -304 0 10 7 17 15 17 8 0 15 3 15 8 0 4
19 16 41 27 22 10 46 26 53 35 13 17 40 35 74 50 12 5 22 14 22 20 0 6 5 8 11
4 12 -7 8 48 -16 211 -42 281 -49 305 -137 475 l-83 160 -323 0 c-225 0 -321
-3 -317 -11z"/>
<path d="M2046 5928 c14 -41 24 -95 24 -125 0 -118 26 -290 61 -400 12 -36 35
-49 54 -29 8 8 39 21 70 30 30 9 80 23 111 32 43 13 58 14 64 5 13 -22 103
502 92 541 -4 17 -24 18 -253 18 l-248 0 25 -72z"/>
<path d="M2986 5953 c-44 -133 -84 -433 -60 -444 5 -2 71 -2 147 1 75 3 137 2
137 -2 0 -5 5 -8 11 -8 6 0 9 7 5 15 -3 9 0 15 7 15 14 0 237 427 237 454 0
14 -24 16 -234 16 l-234 0 -16 -47z"/>
<path d="M3951 5931 c-11 -37 -40 -97 -64 -132 -89 -130 -188 -337 -186 -391
0 -19 2 -21 11 -7 9 13 16 12 56 -8 25 -13 53 -23 61 -23 9 0 36 -8 61 -16 83
-30 111 -34 129 -17 9 8 89 87 179 176 l162 162 80 157 c44 86 80 159 80 162
0 3 -123 6 -274 6 l-274 0 -21 -69z"/>
<path d="M4967 5712 c-179 -246 -218 -295 -278 -341 -85 -66 -178 -158 -232
-229 -33 -43 -38 -55 -26 -63 10 -6 10 -9 2 -9 -7 0 -13 -5 -13 -11 0 -6 7 -9
15 -5 8 3 15 1 15 -5 0 -6 6 -9 12 -7 7 3 18 0 25 -6 6 -6 26 -22 42 -36 17
-14 39 -33 48 -42 10 -10 23 -18 31 -18 7 0 15 -6 18 -14 3 -9 12 -12 22 -8
15 5 15 3 4 -11 -12 -14 -11 -15 15 -8 32 10 228 106 365 180 90 49 105 63
528 486 l435 435 -410 0 -410 -1 -208 -287z"/>
<path d="M0 5585 l0 -410 93 -67 c50 -37 178 -129 283 -205 174 -126 198 -147
271 -238 74 -92 168 -184 233 -228 32 -22 37 -21 45 4 4 13 12 18 21 15 9 -4
12 -2 8 5 -3 6 3 17 15 25 12 8 21 21 21 29 0 7 10 22 23 32 12 10 28 30 36
45 8 15 22 30 33 34 11 3 18 15 18 30 0 14 -51 124 -112 245 l-113 219 -437
437 -438 438 0 -410z"/>
<path d="M5715 4975 c-263 -192 -287 -207 -395 -250 -116 -45 -250 -117 -311
-167 -31 -26 -32 -28 -11 -28 12 0 22 -6 22 -14 0 -8 6 -17 13 -19 9 -4 9 -6
-1 -6 -7 -1 8 -27 33 -58 25 -32 45 -62 45 -68 0 -5 12 -20 27 -33 23 -19 25
-25 13 -32 -24 -15 40 -12 190 10 298 43 321 50 498 139 l162 81 0 325 c0 179
-1 325 -2 325 -2 0 -129 -93 -283 -205z"/>
<path d="M0 4246 l0 -274 67 -22 c38 -12 108 -48 158 -80 104 -66 194 -113
283 -146 75 -29 101 -31 82 -9 -10 12 -10 15 0 15 7 0 10 7 6 15 -3 8 -2 15 2
15 8 0 36 77 47 127 4 18 11 35 16 38 5 4 9 15 9 26 0 10 5 19 10 19 6 0 10 4
10 9 0 12 -101 120 -249 265 -105 104 -118 113 -268 192 -87 46 -161 83 -165
84 -5 0 -8 -123 -8 -274z"/>
<path d="M930 4425 c0 -8 5 -15 10 -15 6 0 10 7 10 15 0 8 -4 15 -10 15 -5 0
-10 -7 -10 -15z"/>
<path d="M5919 3950 c-31 -9 -108 -20 -170 -24 -119 -8 -290 -38 -347 -62 -31
-13 -33 -16 -27 -46 4 -18 13 -44 21 -58 27 -50 52 -158 40 -171 -8 -9 -8 -10
3 -4 11 6 13 4 8 -8 -3 -8 0 -18 8 -21 50 -19 508 -88 530 -80 13 5 15 44 15
250 0 189 -3 244 -12 243 -7 0 -38 -9 -69 -19z"/>
<path d="M0 3236 c0 -129 4 -237 9 -240 5 -3 62 -20 127 -36 149 -39 361 -54
361 -26 0 9 -3 16 -6 16 -4 0 -6 61 -6 135 0 130 1 135 20 129 31 -8 -122 77
-307 171 -92 47 -174 85 -182 85 -14 0 -16 -29 -16 -234z"/>
<path d="M5513 2932 c2 -148 1 -152 -18 -146 l-20 6 20 -15 c55 -40 466 -247
490 -247 13 0 15 36 15 234 l0 234 -47 16 c-89 30 -233 56 -338 63 l-104 6 2
-151z"/>
<path d="M18 2523 c-17 -4 -18 -25 -18 -253 l0 -249 68 23 c46 16 104 25 185
30 133 8 200 18 303 48 l72 20 -10 32 c-16 52 -28 98 -42 161 -8 32 -18 61
-24 63 -5 1 -8 12 -5 22 4 14 -1 21 -18 25 -77 18 -182 36 -309 54 -80 12
-154 23 -165 25 -11 2 -28 1 -37 -1z"/>
<path d="M5404 2285 c17 -13 18 -15 3 -15 -9 0 -17 -4 -17 -10 0 -5 6 -10 13
-10 8 0 9 -2 1 -8 -6 -4 -21 -38 -34 -77 -12 -38 -26 -79 -32 -91 -5 -11 -8
-27 -6 -35 2 -8 -4 -13 -14 -13 -11 1 -15 -3 -11 -10 12 -20 115 -127 243
-254 124 -122 127 -124 282 -202 87 -44 160 -80 163 -80 3 0 5 123 5 273 l0
273 -72 23 c-41 14 -106 46 -148 74 -41 28 -117 72 -170 98 -122 60 -256 102
-206 64z"/>
<path d="M684 1694 c-50 -7 -151 -24 -226 -38 -129 -23 -143 -28 -297 -106
l-161 -81 0 -325 0 -325 43 30 c23 16 150 108 282 205 132 97 260 183 285 192
156 58 335 150 393 202 17 15 17 16 -5 28 -13 7 -21 14 -18 16 4 3 -56 96 -69
108 -4 3 -15 22 -26 43 -11 20 -26 37 -33 37 -12 0 -12 3 -2 15 11 13 7 15
-31 14 -24 -1 -85 -7 -135 -15z"/>
<path d="M5060 1550 c-7 -17 -15 -28 -18 -26 -6 7 -102 -116 -102 -131 0 -7
-9 -17 -20 -23 -11 -6 -20 -19 -20 -30 0 -24 73 -179 161 -340 l68 -125 436
-435 435 -435 -1 410 0 410 -285 205 c-255 184 -291 213 -346 283 -34 43 -102
117 -152 163 -75 71 -95 84 -116 80 -14 -3 -19 -3 -12 0 16 8 15 24 -2 24 -7
0 -19 -14 -26 -30z"/>
<path d="M1235 1057 c-60 -29 -166 -83 -235 -119 l-125 -67 -435 -436 -435
-435 410 0 410 1 120 166 c291 404 287 399 372 467 94 75 195 178 235 238 28
41 35 60 21 55 -5 -1 -17 6 -28 16 -46 40 -93 77 -99 77 -4 0 -23 15 -42 34
-20 19 -41 33 -47 32 -7 -2 -9 -1 -4 1 4 3 7 9 7 14 0 14 -8 11 -125 -44z"/>
<path d="M4520 999 c-7 -11 -18 -18 -25 -15 -9 3 -12 0 -8 -10 3 -7 0 -14 -6
-14 -11 0 -62 -33 -87 -56 -7 -6 -26 -17 -43 -24 -17 -7 -31 -17 -31 -22 0 -5
-5 -6 -10 -3 -6 3 -13 -2 -17 -11 -7 -20 18 -214 51 -395 21 -115 29 -136 105
-287 l81 -162 326 0 325 0 -43 59 c-349 479 -374 517 -402 593 -15 42 -44 109
-65 150 -38 73 -128 218 -136 218 -2 0 -9 -9 -15 -21z"/>
<path d="M1943 628 c-43 -40 -128 -125 -190 -188 -110 -112 -116 -120 -193
-272 -44 -86 -80 -159 -80 -162 0 -4 123 -6 274 -6 l274 0 21 70 c14 44 45
105 82 162 66 101 129 228 153 308 9 30 16 54 16 55 0 1 -11 0 -25 -3 -19 -3
-25 0 -25 12 0 10 -4 15 -8 12 -4 -2 -46 7 -92 20 -47 14 -95 28 -107 31 -13
3 -20 10 -16 19 10 26 -6 15 -84 -58z"/>
<path d="M3768 606 c-50 -21 -97 -33 -163 -42 -11 -1 -22 -3 -25 -4 -3 -1 -8
-2 -12 -1 -4 0 -10 -9 -13 -22 -35 -152 -88 -499 -79 -522 5 -13 40 -15 250
-15 134 0 244 4 244 9 0 5 -7 28 -16 52 -9 24 -22 112 -30 196 -12 142 -44
315 -66 356 -11 22 -21 21 -90 -7z"/>
<path d="M2720 404 c-82 -151 -190 -374 -190 -390 0 -12 35 -14 237 -12 l237
3 27 103 c43 160 66 404 37 386 -18 -11 -287 -11 -291 0 -2 5 -27 -35 -57 -90z"/>
</g>
</svg>
